<?xml version="1.0" encoding="UTF-8" standalone="no"?>
<!-- Created with Inkscape (http://www.inkscape.org/) -->

<svg
   xmlns:dc="http://purl.org/dc/elements/1.1/"
   xmlns:cc="http://creativecommons.org/ns#"
   xmlns:rdf="http://www.w3.org/1999/02/22-rdf-syntax-ns#"
   xmlns:svg="http://www.w3.org/2000/svg"
   xmlns="http://www.w3.org/2000/svg"
   xmlns:xlink="http://www.w3.org/1999/xlink"
   xmlns:sodipodi="http://sodipodi.sourceforge.net/DTD/sodipodi-0.dtd"
   xmlns:inkscape="http://www.inkscape.org/namespaces/inkscape"
   width="210mm"
   height="297mm"
   viewBox="0 0 210 297"
   version="1.1"
   id="svg8"
   inkscape:version="0.92.4 (5da689c313, 2019-01-14)"
   sodipodi:docname="유리돔.svg">
  <defs
     id="defs2">
    <inkscape:perspective
       sodipodi:type="inkscape:persp3d"
       inkscape:vp_x="0 : 148.5 : 1"
       inkscape:vp_y="0 : 1000 : 0"
       inkscape:vp_z="210 : 148.5 : 1"
       inkscape:persp3d-origin="105 : 99 : 1"
       id="perspective4796" />
    <linearGradient
       inkscape:collect="always"
       id="linearGradient4792">
      <stop
         style="stop-color:#f7d39d;stop-opacity:1;"
         offset="0"
         id="stop4788" />
      <stop
         style="stop-color:#bf8732;stop-opacity:1"
         offset="1"
         id="stop4790" />
    </linearGradient>
    <linearGradient
       inkscape:collect="always"
       xlink:href="#linearGradient4792"
       id="linearGradient4794"
       x1="101.66259"
       y1="157.80602"
       x2="101.14147"
       y2="129.36855"
       gradientUnits="userSpaceOnUse" />
  </defs>
  <sodipodi:namedview
     id="base"
     pagecolor="#ffffff"
     bordercolor="#666666"
     borderopacity="1.0"
     inkscape:pageopacity="0.0"
     inkscape:pageshadow="2"
     inkscape:zoom="0.5"
     inkscape:cx="126.64938"
     inkscape:cy="437.56049"
     inkscape:document-units="mm"
     inkscape:current-layer="layer1"
     showgrid="false"
     inkscape:snap-global="false"
     inkscape:window-width="1920"
     inkscape:window-height="1017"
     inkscape:window-x="-8"
     inkscape:window-y="350"
     inkscape:window-maximized="1" />
  <metadata
     id="metadata5">
    <rdf:RDF>
      <cc:Work
         rdf:about="">
        <dc:format>image/svg+xml</dc:format>
        <dc:type
           rdf:resource="http://purl.org/dc/dcmitype/StillImage" />
        <dc:title></dc:title>
      </cc:Work>
    </rdf:RDF>
  </metadata>
  <g
     inkscape:label="Layer 1"
     inkscape:groupmode="layer"
     id="layer1">
    <path
       style="fill:none;fill-opacity:1;stroke:#000000;stroke-width:0.26458332;stroke-linejoin:round;stroke-miterlimit:4;stroke-dasharray:none;stroke-opacity:1"
       d="m 364.77544,149.96726 a 74.867706,74.867706 0 0 1 -74.8677,74.86771 74.867706,74.867706 0 0 1 -74.86771,-74.86771 74.867706,74.867706 0 0 1 74.86771,-74.867706 74.867706,74.867706 0 0 1 74.8677,74.867706 z"
       id="path815-6"
       inkscape:connector-curvature="0" />
    <path
       style="fill:none;fill-opacity:1;stroke:#000000;stroke-width:0.26458332;stroke-linejoin:round;stroke-miterlimit:4;stroke-dasharray:none;stroke-opacity:1"
       d="m 290.06831,145.85061 a 71.202484,14.580504 0 0 1 -71.20249,-14.5805 71.202484,14.580504 0 0 1 71.20249,-14.5805 71.202484,14.580504 0 0 1 71.20248,14.5805 71.202484,14.580504 0 0 1 -71.20248,14.5805 z"
       id="path815-0-4-2"
       inkscape:connector-curvature="0" />
    <path
       style="fill:none;fill-opacity:1;stroke:#000000;stroke-width:0.26458332;stroke-linejoin:round;stroke-miterlimit:4;stroke-dasharray:none;stroke-opacity:1"
       d="m 290.24548,125.66258 a 64.049211,13.105143 0 0 1 -64.04921,-13.10514 64.049211,13.105143 0 0 1 64.04921,-13.105139 64.049211,13.105143 0 0 1 64.04921,13.105139 64.049211,13.105143 0 0 1 -64.04921,13.10514 z"
       id="path815-0-4-8-6"
       inkscape:connector-curvature="0" />
    <path
       style="fill:none;fill-opacity:1;stroke:#000000;stroke-width:0.26458332;stroke-linejoin:round;stroke-miterlimit:4;stroke-dasharray:none;stroke-opacity:1"
       d="m 290.0683,103.55567 a 47.946474,9.7839554 0 0 1 -47.94647,-9.783956 47.946474,9.7839554 0 0 1 47.94647,-9.783955 47.946474,9.7839554 0 0 1 47.94648,9.783955 47.946474,9.7839554 0 0 1 -47.94648,9.783956 z"
       id="path815-0-4-3-8"
       inkscape:connector-curvature="0" />
    <path
       inkscape:connector-curvature="0"
       id="path815-0-4-6-0"
       d="m 290.11555,153.905 a 72.574618,14.863506 0 0 1 72.57462,14.8635 72.574618,14.863506 0 0 1 -72.57462,14.86351 72.574618,14.863506 0 0 1 -72.57462,-14.86351 72.574618,14.863506 0 0 1 72.57462,-14.8635 z"
       style="fill:none;fill-opacity:1;stroke:#000000;stroke-width:0.26458332;stroke-linejoin:round;stroke-miterlimit:4;stroke-dasharray:none;stroke-opacity:1" />
    <path
       inkscape:connector-curvature="0"
       id="path815-0-4-8-8-9"
       d="M 289.7662,174.34575 A 64.373147,13.171954 0 0 1 354.13935,187.5177 64.373147,13.171954 0 0 1 289.7662,200.68967 64.373147,13.171954 0 0 1 225.39305,187.5177 64.373147,13.171954 0 0 1 289.7662,174.34575 Z"
       style="fill:none;fill-opacity:1;stroke:#000000;stroke-width:0.26458332;stroke-linejoin:round;stroke-miterlimit:4;stroke-dasharray:none;stroke-opacity:1" />
    <g
       id="g4954">
      <path
         sodipodi:nodetypes="scssscs"
         style="fill:#a9e2e2;fill-opacity:0.3499268;stroke:#59959c;stroke-width:1.10119583;stroke-linejoin:round;stroke-miterlimit:4;stroke-dasharray:none;stroke-opacity:0.6156863"
         d="m 102.43154,211.53474 c -23.285588,0 -42.68333,-4.98415 -47.018368,-9.47211 -17.00213,-13.71663 -27.820911,-34.68061 -27.82091,-58.17145 2e-6,-41.34829 33.519415,-74.867707 74.867708,-74.867706 41.34829,3e-6 74.8677,33.519416 74.8677,74.867706 0,23.48165 -10.81032,44.43842 -27.74063,58.05218 -3.83616,4.49477 -23.48754,9.59138 -47.1555,9.59138 z"
         id="path815-0-4-3-3"
         inkscape:connector-curvature="0" />
      <ellipse
         transform="matrix(0.95163463,-0.30723204,0.36924149,0.92933348,0,0)"
         ry="34.545567"
         rx="19.060673"
         cy="168.80748"
         cx="-8.2616262"
         id="path4699-8"
         style="fill:#efefef;fill-opacity:0.41434845;stroke:none;stroke-width:0.58271629;stroke-linecap:round;stroke-linejoin:round;stroke-miterlimit:4;stroke-dasharray:none;stroke-opacity:0.80994155" />
      <ellipse
         ry="10.851143"
         rx="69.877617"
         cy="143.77437"
         cx="102.99229"
         id="path4778"
         style="fill:none;fill-opacity:1;stroke:url(#linearGradient4794);stroke-width:9.20750046;stroke-linecap:round;stroke-linejoin:round;stroke-miterlimit:4;stroke-dasharray:none;stroke-opacity:1" />
      <path
         sodipodi:nodetypes="csc"
         inkscape:connector-curvature="0"
         id="path815-0"
         d="m 177.2757,145.58056 c -4.00221,7.68363 -35.85204,13.66912 -74.54942,13.66912 -41.406618,0 -74.973313,-6.85293 -74.973302,-15.30644"
         style="fill:none;fill-opacity:1;stroke:#337079;stroke-width:1.64041667;stroke-linejoin:round;stroke-miterlimit:4;stroke-dasharray:none;stroke-opacity:0.40849194;stroke-linecap:round" />
      <path
         sodipodi:nodetypes="csc"
         inkscape:connector-curvature="0"
         id="path815-0-4"
         d="m 174.95821,125.1151 c -1e-5,8.13903 -32.47085,14.73701 -72.52567,14.73701 -40.054817,0 -72.525663,-6.59798 -72.525674,-14.73701"
         style="fill:none;fill-opacity:1;stroke:#337079;stroke-width:1.64041667;stroke-linejoin:round;stroke-miterlimit:4;stroke-dasharray:none;stroke-opacity:0.40849194;stroke-linecap:round" />
      <path
         sodipodi:nodetypes="csc"
         inkscape:connector-curvature="0"
         id="path815-0-4-3"
         d="m 151.84157,87.54919 c 0,5.563189 -22.08989,10.073046 -49.33916,10.073045 -27.249253,0 -49.33914,-4.509857 -49.339138,-10.073045"
         style="fill:none;fill-opacity:1;stroke:#337079;stroke-width:1.64041667;stroke-linejoin:round;stroke-miterlimit:4;stroke-dasharray:none;stroke-opacity:0.40849194;stroke-linecap:round" />
      <path
         sodipodi:nodetypes="csc"
         style="fill:none;fill-opacity:1;stroke:#337079;stroke-width:1.64041667;stroke-linejoin:round;stroke-miterlimit:4;stroke-dasharray:none;stroke-opacity:0.40849194;stroke-linecap:round"
         d="m 173.89397,165.55893 c -6.52246,6.83728 -35.93217,11.99704 -71.22619,11.99704 -36.874671,0 -67.489858,-5.65566 -72.126971,-12.94884"
         id="path815-0-4-6"
         inkscape:connector-curvature="0" />
      <path
         sodipodi:nodetypes="ccccsccsccsscsccsc"
         inkscape:connector-curvature="0"
         id="path815-0-4-3-3-9"
         d="m 55.06692,201.69495 c 10e-7,-0.22681 0.333681,-1.58907 0.80808,-2.06214 0.474401,-0.47306 1.296828,-1.03044 2.419922,-1.57226 2.246187,-1.08365 5.669348,-2.12481 9.929687,-2.99414 8.52068,-1.73868 20.41032,-2.83008 33.539061,-2.83008 13.12875,0 25.01838,1.0914 33.53906,2.83008 4.26035,0.86933 7.68546,1.91049 9.93165,2.99414 1.12309,0.54182 1.94356,1.0992 2.41796,1.57226 0.47441,0.47307 0.27852,3.51148 0.27852,3.73829 1.31764,-1.19623 3.09414,-2.54662 3.09414,-2.54662 0,-1.12027 -0.66699,-2.01022 -1.46641,-3.10378 -0.79942,-1.09356 -1.85597,-2.0089 -3.15234,-2.86686 -2.59274,-1.71589 -6.17042,-3.17265 -10.5625,-4.40209 -8.78416,-2.4589 -20.80252,-3.95735 -34.08008,-3.95735 -13.277549,0 -25.293962,1.49845 -34.078123,3.95735 -4.392081,1.22944 -7.969764,2.6862 -10.5625,4.40209 -1.296368,0.85796 -2.352924,1.7733 -3.152344,2.86686 -0.79942,1.09356 -0.7611,1.35727 -0.761103,2.47754"
         style="color:#000000;font-style:normal;font-variant:normal;font-weight:normal;font-stretch:normal;font-size:medium;line-height:normal;font-family:sans-serif;font-variant-ligatures:normal;font-variant-position:normal;font-variant-caps:normal;font-variant-numeric:normal;font-variant-alternates:normal;font-feature-settings:normal;text-indent:0;text-align:start;text-decoration:none;text-decoration-line:none;text-decoration-style:solid;text-decoration-color:#000000;letter-spacing:normal;word-spacing:normal;text-transform:none;writing-mode:lr-tb;direction:ltr;text-orientation:mixed;dominant-baseline:auto;baseline-shift:baseline;text-anchor:start;white-space:normal;shape-padding:0;clip-rule:nonzero;display:inline;overflow:visible;visibility:visible;opacity:1;isolation:auto;mix-blend-mode:normal;color-interpolation:sRGB;color-interpolation-filters:linearRGB;solid-color:#000000;solid-opacity:1;vector-effect:none;fill:#2b394d;fill-opacity:0.2137628;fill-rule:nonzero;stroke:none;stroke-width:2.69875002;stroke-linecap:round;stroke-linejoin:round;stroke-miterlimit:4;stroke-dasharray:none;stroke-dashoffset:0;stroke-opacity:1;color-rendering:auto;image-rendering:auto;shape-rendering:auto;text-rendering:auto;enable-background:accumulate" />
      <rect
         y="193.35287"
         x="98.736046"
         height="3.7417734"
         width="0.46772167"
         id="rect4814-5"
         style="fill:#ff5555;fill-opacity:1;stroke:#8ce24a;stroke-width:9.2074995;stroke-linecap:round;stroke-linejoin:round;stroke-miterlimit:4;stroke-dasharray:none;stroke-opacity:1" />
      <rect
         y="197.46883"
         x="121.93504"
         height="3.7417734"
         width="0.46772167"
         id="rect4814-84"
         style="fill:#ff5555;fill-opacity:1;stroke:#8ce24a;stroke-width:9.2074995;stroke-linecap:round;stroke-linejoin:round;stroke-miterlimit:4;stroke-dasharray:none;stroke-opacity:1" />
      <rect
         y="198.77844"
         x="88.820343"
         height="3.7417734"
         width="0.46772167"
         id="rect4814-1"
         style="fill:#ff5555;fill-opacity:1;stroke:#8ce24a;stroke-width:9.2074995;stroke-linecap:round;stroke-linejoin:round;stroke-miterlimit:4;stroke-dasharray:none;stroke-opacity:1" />
      <path
         sodipodi:nodetypes="csc"
         style="fill:none;fill-opacity:1;stroke:#337079;stroke-width:1.64041667;stroke-linejoin:round;stroke-miterlimit:4;stroke-dasharray:none;stroke-opacity:0.40849194"
         d="m 165.66107,183.80187 c -5.43589,6.1484 -31.72776,10.81176 -63.34264,10.81176 -30.521916,0 -56.082501,-4.3465 -62.704722,-10.17954"
         id="path815-0-4-8-8"
         inkscape:connector-curvature="0" />
      <path
         sodipodi:nodetypes="csc"
         inkscape:connector-curvature="0"
         id="path815-0-7"
         d="m 27.936582,143.79217 c 1.6e-5,-8.45351 33.454251,-15.30643 74.722138,-15.30643 41.26789,0 74.72213,6.85292 74.72215,15.30643"
         style="fill:none;fill-opacity:1;stroke:#030405;stroke-width:2.43416667;stroke-linejoin:round;stroke-miterlimit:4;stroke-dasharray:none;stroke-opacity:0.12737921" />
      <rect
         y="124.34057"
         x="89.195305"
         height="3.7417734"
         width="0.46772167"
         id="rect4814-40"
         style="fill:#ff5555;fill-opacity:1;stroke:#6fd422;stroke-width:9.2074995;stroke-linecap:round;stroke-linejoin:round;stroke-miterlimit:4;stroke-dasharray:none;stroke-opacity:1" />
      <path
         sodipodi:nodetypes="csc"
         inkscape:connector-curvature="0"
         id="path815-0-4-8"
         d="m 167.31412,106.41715 c -1e-5,7.30803 -29.05526,13.23235 -64.89676,13.23235 -35.841492,0 -64.896763,-5.92432 -64.896772,-13.23235"
         style="fill:none;fill-opacity:1;stroke:#337079;stroke-width:1.64041667;stroke-linejoin:round;stroke-miterlimit:4;stroke-dasharray:none;stroke-opacity:0.40849194;stroke-linecap:round" />
      <rect
         y="143.68083"
         x="48.455963"
         height="3.7417734"
         width="0.46772167"
         id="rect4814"
         style="fill:#ff5555;fill-opacity:1;stroke:#8ce24a;stroke-width:9.2074995;stroke-linecap:round;stroke-linejoin:round;stroke-miterlimit:4;stroke-dasharray:none;stroke-opacity:1" />
      <rect
         y="145.90411"
         x="70.542183"
         height="3.7417734"
         width="0.46772167"
         id="rect4814-4"
         style="fill:#ff5555;fill-opacity:1;stroke:#8ce24a;stroke-width:9.2074995;stroke-linecap:round;stroke-linejoin:round;stroke-miterlimit:4;stroke-dasharray:none;stroke-opacity:1" />
      <rect
         y="146.69786"
         x="100.70468"
         height="3.7417734"
         width="0.46772167"
         id="rect4814-9"
         style="fill:#ff5555;fill-opacity:1;stroke:#8ce24a;stroke-width:9.2074995;stroke-linecap:round;stroke-linejoin:round;stroke-miterlimit:4;stroke-dasharray:none;stroke-opacity:1" />
      <rect
         y="145.63953"
         x="60.355724"
         height="3.7417734"
         width="0.46772167"
         id="rect4814-6"
         style="fill:#ff5555;fill-opacity:1;stroke:#8ce24a;stroke-width:9.2074995;stroke-linecap:round;stroke-linejoin:round;stroke-miterlimit:4;stroke-dasharray:none;stroke-opacity:1" />
      <rect
         y="125.66349"
         x="118.56406"
         height="3.7417734"
         width="0.46772167"
         id="rect4814-8"
         style="fill:#ff5555;fill-opacity:1;stroke:#6fd422;stroke-width:9.2074995;stroke-linecap:round;stroke-linejoin:round;stroke-miterlimit:4;stroke-dasharray:none;stroke-opacity:1" />
      <ellipse
         transform="matrix(0.94169554,-0.33646622,0.57124717,0.82077809,0,0)"
         ry="36.577538"
         rx="16.275698"
         cy="156.32469"
         cx="59.070873"
         id="path4699"
         style="fill:#ffffff;fill-opacity:0.38945827;stroke:none;stroke-width:0.59250581;stroke-linecap:round;stroke-linejoin:round;stroke-miterlimit:4;stroke-dasharray:none;stroke-opacity:0.80994155" />
      <rect
         y="125.92807"
         x="139.86302"
         height="3.7417734"
         width="0.46772167"
         id="rect4814-85"
         style="fill:#ff5555;fill-opacity:1;stroke:#6fd422;stroke-width:9.2074995;stroke-linecap:round;stroke-linejoin:round;stroke-miterlimit:4;stroke-dasharray:none;stroke-opacity:1" />
    </g>
  </g>
</svg>
